<svg width="1920" height="1080" viewBox="0 0 1920 1080" xmlns="http://www.w3.org/2000/svg"><rect width="1920" height="1080" fill="#dce5e4"/><path d="M2404.8176828700357,1120.9999999999998C2354.976972244477,1198.793376055722,2356.9431174954157,1188.4813375094755,2364.1148294786003,1281.707774027483C2371.286541461785,1374.9342105454907,2476.7399687187085,1586.5945169090655,2447.8479547691436,1680.3586191080458C2418.9559408195787,1774.122721307026,2287.8034628178575,1870.18067509748,2190.7627457812105,1844.292387221365C2093.7220287445634,1818.4040993452502,1966.5641101794617,1541.9911142485291,1865.60365254926,1525.0288918513565C1764.6431949190583,1508.066669454184,1654.4965925480565,1739.717378276996,1585.0000000000002,1742.5190528383291C1515.503407451944,1745.3207273996622,1508.725880685982,1625.6031533401897,1448.624097260923,1541.8389392193549C1388.522313835864,1458.07472509852,1243.0457773220812,1329.98847415001,1224.389299449646,1239.9337681133197C1205.7328215772106,1149.8790620766295,1268.1876434756923,1085.655523722052,1336.6852300263117,1001.5107029992134C1405.1828165769311,917.3658822763748,1594.8223570910811,823.9031364158781,1635.3748187533624,735.0648437762877C1675.9272804156437,646.2265511366974,1536.0056985723165,534.1403247120867,1579.9999999999995,468.4809471616712C1623.9943014276826,402.82156961125577,1796.8801696892585,295.4946623092745,1899.3406273194603,341.108578473795C2001.801084949662,386.7224946383155,2134.919617907374,706.9800172500129,2194.7627457812105,742.1644441487942C2254.605873655047,777.3488710475756,2180.3333366540237,540.0846276090905,2258.39939456248,552.215139866483C2336.4654524709367,564.3456521238755,2638.756045180691,720.1500410042298,2663.1590932319505,814.9475176931493C2687.5621412832097,909.7449943820687,2454.6583934955943,1043.2066239442775,2404.8176828700357,1120.9999999999998C2354.976972244477,1198.793376055722,2356.9431174954157,1188.4813375094755,2364.1148294786003,1281.707774027483" fill="#064e40"/></svg>