<svg width="1920" height="1080" viewBox="0 0 1920 1080" xmlns="http://www.w3.org/2000/svg"><rect width="1920" height="1080" fill="#eff2f1"/><path d="M1277,581.9999999999999C1277.3768844834942,629.1389838710435,1212.2224405304369,658.9987798383567,1186.0020486516228,701.4169516131305C1159.7816567728087,743.8351233879044,1150.5326421514565,812.4430788792622,1119.6776487271154,836.5090306486431C1088.8226553027744,860.5749824180241,1042.548607245556,851.4032926488023,1000.8720881055766,845.8126622294162C959.1955689655972,840.2220318100301,895.4660148124207,829.513896474733,869.6185338872393,802.9652481323267C843.771052962058,776.4165997899204,872.2707157403311,717.0176530157587,845.7872025544887,686.5207721749782C819.3036893686462,656.0238913341977,734.562412735902,652.3113123413951,710.7174547721845,619.9839630876438C686.8724968084671,587.6566138338925,680.8014553249083,533.2101367457838,702.7174547721843,492.55667665247006C724.6334542194603,451.90321655915636,816.0632716033317,410.5734607707773,842.2134514558409,376.0632025277615C868.36363130835,341.55294428474576,827.2842062943696,307.47443798723856,859.6185338872392,285.4951271943756C891.9528614801088,263.5158164015126,990.3229759186796,239.58323496501282,1036.2194170130583,244.18733777058378C1082.115858107437,248.79144057615474,1110.4102929972448,284.0537922584204,1134.9971804535114,313.1197440278013C1159.584067909778,342.1856957971822,1160.0736051595763,373.7696723915028,1183.7407417506577,418.5830483868692C1207.407878341739,463.39642438223564,1276.6231155165058,534.8610161289563,1277,581.9999999999999C1277.3768844834942,629.1389838710435,1212.2224405304369,658.9987798383567,1186.0020486516228,701.4169516131305" fill="#dce5e4"/></svg>