<svg width="1920" height="1080" viewBox="0 0 1920 1080" xmlns="http://www.w3.org/2000/svg"><rect width="1920" height="1080" fill="#dce5e4"/><path d="M 0,1080 C 0,1080 0,154 0,154 C 26.814946520408213,161.81116229112536 53.62989304081643,169.62232458225074 97,171 C 140.37010695918357,172.37767541774926 200.29537435714246,167.32186396212242 244,159 C 287.70462564285754,150.67813603787758 315.1886095306136,139.09021956925955 373,137 C 430.8113904693864,134.90978043074045 518.9501875204033,142.31725776083937 542,133 C 565.0498124795967,123.68274223916063 523.0106403877733,97.64074938738298 548,115 C 572.9893596122267,132.35925061261702 665.0072509285035,193.11974468962865 742,189 C 818.9927490714965,184.88025531037135 880.9603558982129,115.88027185410239 899,116 C 917.0396441017871,116.11972814589761 891.1513254786449,185.35916789396174 899,211 C 906.8486745213551,236.64083210603826 948.4343421872068,218.68305657005075 1013,188 C 1077.5656578127932,157.31694342994925 1165.1113057725274,113.90860582583527 1220,100 C 1274.8886942274726,86.09139417416473 1297.1204347226833,101.68252012660818 1331,123 C 1364.8795652773167,144.31747987339182 1410.4069553367397,171.36131366773205 1446,185 C 1481.5930446632603,198.63868633226795 1507.2517439303585,198.87222520246362 1546,203 C 1584.7482560696415,207.12777479753638 1636.5860689418264,215.14978552241365 1679,196 C 1721.4139310581736,176.85021447758635 1754.4039803023352,130.52863270788183 1793,119 C 1831.5960196976648,107.47136729211817 1875.7980098488324,130.7356836460591 1920,154 C 1920,154 1920,1080 1920,1080 Z" fill="#064e40" opacity="0.08571428571428572"/><path d="M 0,1080 C 0,1080 0,308 0,308 C 63.027058583122496,320.5447973028024 126.05411716624499,333.0895946056049 154,344 C 181.945882833755,354.9104053943951 174.81058991814263,364.1864188803829 216,357 C 257.1894100818574,349.8135811196171 346.70352316118436,326.1647298728635 394,321 C 441.29647683881564,315.8352701271365 446.37531743712,329.15466162816296 489,317 C 531.62468256288,304.84533837183704 611.7952070903359,267.21662361448455 648,266 C 684.2047929096641,264.78337638551545 676.4438542015364,299.97884391389886 707,309 C 737.5561457984636,318.02115608610114 806.4293761035187,300.86800072992 872,289 C 937.5706238964813,277.13199927008 999.8386413843887,270.5491531664212 1013,274 C 1026.1613586156113,277.4508468335788 990.2160583589261,290.93538660439515 1029,311 C 1067.7839416410739,331.06461339560485 1181.2971251799067,357.70930041599803 1230,344 C 1278.7028748200933,330.29069958400197 1262.5954409214462,276.22741173161273 1280,284 C 1297.4045590785538,291.77258826838727 1348.3211111343087,361.3810526575513 1421,358 C 1493.6788888656913,354.6189473424487 1588.1201145413193,278.24837763818215 1615,281 C 1641.8798854586807,283.75162236181785 1601.1984307004143,365.6254367897202 1631,365 C 1660.8015692995857,364.3745632102798 1761.0861626570245,281.24987520293706 1821,258 C 1880.9138373429755,234.75012479706294 1900.4569186714878,271.37506239853144 1920,308 C 1920,308 1920,1080 1920,1080 Z" fill="#064e40" opacity="0.17142857142857143"/><path d="M 0,1080 C 0,1080 0,462 0,462 C 14.519637976204102,489.77757372320946 29.039275952408204,517.5551474464189 67,506 C 104.9607240475918,494.44485255358114 166.36253416657127,443.55698393753397 211,438 C 255.63746583342873,432.44301606246603 283.5105873813068,472.2169168034452 324,468 C 364.4894126186932,463.7830831965548 417.59511630820157,415.5753488486854 486,428 C 554.4048836917984,440.4246511513146 638.1089473858871,513.4816878018131 653,513 C 667.8910526141129,512.5183121981869 613.9690941482504,438.4978999440624 656,418 C 698.0309058517496,397.5021000559376 836.0146760211113,430.5267124219373 880,456 C 923.9853239788887,481.4732875780627 873.9722017673047,499.39525036818844 907,502 C 940.0277982326953,504.60474963181156 1056.0965169096696,491.8922861053087 1098,466 C 1139.9034830903304,440.1077138946913 1107.6417305940176,401.03560521057676 1138,416 C 1168.3582694059824,430.96439478942324 1261.3365607142603,499.96529305238437 1313,514 C 1364.6634392857397,528.0347069476156 1375.0120265489413,487.10322257988594 1407,474 C 1438.9879734510587,460.89677742011406 1492.6153330899745,475.62181662807177 1549,462 C 1605.3846669100255,448.37818337192823 1664.526641091161,406.4095109078268 1718,412 C 1771.473358908839,417.5904890921732 1819.2781025453826,470.7401397406209 1852,487 C 1884.7218974546174,503.2598602593791 1902.3609487273088,482.62993012968957 1920,462 C 1920,462 1920,1080 1920,1080 Z" fill="#064e40" opacity="0.2571428571428571"/><path d="M 0,1080 C 0,1080 0,617 0,617 C 78.20568507756632,643.2707941442901 156.41137015513263,669.5415882885802 176,654 C 195.58862984486737,638.4584117114198 156.5602044570357,581.1044409899691 183,561 C 209.4397955429643,540.8955590100309 301.34781201672445,558.0406477515435 343,577 C 384.65218798327555,595.9593522484565 376.04854747606646,616.7329680038567 432,632 C 487.95145252393354,647.2670319961433 608.4579980790097,657.0274802330296 641,644 C 673.5420019209903,630.9725197669704 618.1194602078949,595.1571110640245 654,588 C 689.8805397921051,580.8428889359755 817.0641610894106,602.3440755108717 879,598 C 940.9358389105894,593.6559244891283 937.6238954344624,563.466586892489 965,574 C 992.3761045655376,584.533413107511 1050.4402571727398,635.7895769191725 1081,637 C 1111.5597428272602,638.2104230808275 1114.6150758745794,589.3751054308208 1135,578 C 1155.3849241254206,566.6248945691792 1193.099439328943,592.7100013575447 1257,620 C 1320.900560671057,647.2899986424553 1410.987166809648,675.7848891390005 1454,669 C 1497.012833190352,662.2151108609995 1492.9518934324653,620.1504420864535 1526,612 C 1559.0481065675347,603.8495579135465 1629.2052594604902,629.6133425151855 1667,630 C 1704.7947405395098,630.3866574848145 1710.2270687255743,605.3961878528041 1747,599 C 1783.7729312744257,592.6038121471959 1851.886465637213,604.8019060735979 1920,617 C 1920,617 1920,1080 1920,1080 Z" fill="#064e40" opacity="0.34285714285714286"/><path d="M 0,1080 C 0,1080 0,771 0,771 C 29.335591394457893,742.2691317292287 58.671182788915786,713.5382634584573 98,725 C 137.3288172110842,736.4617365415427 186.6508602387948,788.1160778953994 250,796 C 313.3491397612052,803.8839221046006 390.72537625590496,767.9974249599449 426,763 C 461.27462374409504,758.0025750400551 454.44763473758536,783.8942222648212 479,803 C 503.55236526241464,822.1057777351788 559.4840847937537,834.42568598077 598,816 C 636.5159152062463,797.57431401923 657.6160260873995,748.403033812099 703,741 C 748.3839739126005,733.596966187901 818.0518108566479,767.9621787708339 869,783 C 919.9481891433521,798.0378212291661 952.1767304860088,793.7482511045655 971,795 C 989.8232695139912,796.2517488954345 995.2412671993168,803.044816810904 1027,809 C 1058.7587328006832,814.955183189096 1116.858200716724,820.0724816518184 1157,799 C 1197.141799283276,777.9275183481816 1219.3259299337867,730.6652565818222 1286,730 C 1352.6740700662133,729.3347434181778 1463.8380795481291,775.266492020893 1502,780 C 1540.1619204518709,784.733507979107 1505.3217518736974,748.2687753346061 1541,728 C 1576.6782481263026,707.7312246653939 1682.8749129570813,703.6584066406829 1737,726 C 1791.1250870429187,748.3415933593171 1793.1785962979766,797.0975981026621 1815,809 C 1836.8214037020234,820.9024018973379 1878.4107018510117,795.9512009486689 1920,771 C 1920,771 1920,1080 1920,1080 Z" fill="#064e40" opacity="0.4285714285714286"/><path d="M 0,1080 C 0,1080 0,925 0,925 C 10.317411746679106,916.4316961196605 20.634823493358212,907.8633922393211 69,897 C 117.36517650664179,886.1366077606789 203.77811777324627,872.9781271623763 261,880 C 318.22188222675373,887.0218728376237 346.2527054136567,914.2240991111742 378,916 C 409.7472945863433,917.7759008888258 445.21106057212694,894.1254763929275 491,909 C 536.7889394278731,923.8745236070725 592.9030522978353,977.2739953171164 646,978 C 699.0969477021647,978.7260046828836 749.176730236532,926.7785423386069 773,922 C 796.823269763468,917.2214576613931 794.3900267560365,959.6118353284559 826,954 C 857.6099732439635,948.3881646715441 923.2631627393226,894.7741163475698 972,885 C 1020.7368372606774,875.2258836524302 1052.5573222866733,909.2916992812644 1093,917 C 1133.4426777133267,924.7083007187356 1182.5075481139834,906.0590865273724 1221,914 C 1259.4924518860166,921.9409134726276 1287.4124852573932,956.4719546092458 1341,952 C 1394.5875147426068,947.5280453907542 1473.8425108564443,904.0530950356441 1504,913 C 1534.1574891435557,921.9469049643559 1515.2174713168295,983.315665248178 1554,980 C 1592.7825286831705,976.684334751822 1689.287603876238,908.6842439716443 1738,889 C 1786.712396123762,869.3157560283557 1787.6321131782177,897.9473588652444 1810,912 C 1832.3678868217823,926.0526411347556 1876.183943410891,925.5263205673778 1920,925 C 1920,925 1920,1080 1920,1080 Z" fill="#064e40" opacity="0.5142857142857142"/><path d="M 0,1080 C 0,1080 0,1079 0,1079 C 8.34142869000339,1092.836575203477 16.68285738000678,1106.6731504069542 56,1097 C 95.31714261999322,1087.3268495930458 165.60999916997628,1054.14397357566 201,1044 C 236.39000083002372,1033.85602642434 236.87714594008816,1046.7509552904053 303,1056 C 369.12285405991184,1065.2490447095947 500.881417069671,1070.8522052627184 546,1082 C 591.118582930329,1093.1477947372816 549.5971857812276,1109.840223658721 553,1116 C 556.4028142187724,1122.159776341279 604.7298398054185,1117.7869001023969 675,1117 C 745.2701601945815,1116.2130998976031 837.483454997099,1119.012175931691 895,1110 C 952.516545002901,1100.987824068309 975.3363402061855,1080.1643961708392 1014,1059 C 1052.6636597938145,1037.8356038291608 1107.171184178159,1016.3302393849515 1126,1033 C 1144.828815821841,1049.6697606150485 1127.9789230811796,1104.5146462893554 1156,1126 C 1184.0210769188204,1147.4853537106446 1256.913123497123,1135.6111754576266 1323,1108 C 1389.086876502877,1080.3888245423734 1448.368582930329,1037.0406518801387 1482,1028 C 1515.631417069671,1018.9593481198613 1523.6125447815612,1044.2262170218185 1549,1044 C 1574.3874552184388,1043.7737829781815 1617.1812379434255,1018.0544800325874 1650,1023 C 1682.8187620565745,1027.9455199674126 1705.6625034447356,1063.555862847832 1749,1078 C 1792.3374965552644,1092.444137152168 1856.1687482776322,1085.722068576084 1920,1079 C 1920,1079 1920,1080 1920,1080 Z" fill="#064e40" opacity="0.6"/></svg>