<svg width="720" height="720" viewBox="0 0 720 720" xmlns="http://www.w3.org/2000/svg"><rect width="720" height="720" fill="#dce5e4"/><path d="M 0,720 C 0,720 0,102 0,102 C 16.245882430678925,106.46061085364244 32.49176486135785,110.92122170728487 52,118 C 71.50823513864215,125.07877829271513 94.2788229852475,134.77572402450295 107,120 C 119.7211770147525,105.22427597549705 122.39294319765216,65.9758821947033 134,69 C 145.60705680234784,72.0241178052967 166.1494042241438,117.32074719668384 188,123 C 209.8505957758562,128.67925280331616 233.00943990577255,94.74112901856131 241,88 C 248.99056009422745,81.25887098143869 241.812836152766,101.71473672907094 257,113 C 272.187163847234,124.28526327092906 309.73921548316343,126.39992406515495 333,116 C 356.26078451683657,105.60007593484505 365.23030191458025,82.68556701030927 368,84 C 370.76969808541975,85.31443298969073 367.3395768585155,110.85780789360794 381,118 C 394.6604231414845,125.14219210639206 425.4113906513577,113.88320141525895 449,112 C 472.5886093486423,110.11679858474105 489.0148605360537,117.60938644535624 503,115 C 516.9851394639463,112.39061355464376 528.5291672044276,99.67925280331613 536,106 C 543.4708327955724,112.32074719668387 546.8684706462359,137.6736023413792 566,129 C 585.1315293537641,120.3263976586208 619.9969502106287,77.62633783116713 639,74 C 658.0030497893713,70.37366216883287 661.1437285112489,105.82104633395224 672,117 C 682.8562714887511,128.17895366604776 701.4281357443756,115.08947683302388 720,102 C 720,102 720,720 720,720 Z" fill="#064e40" opacity="0.08571428571428572"/><path d="M 0,720 C 0,720 0,205 0,205 C 18.746931460740818,224.23684024461477 37.493862921481636,243.47368048922954 50,240 C 62.506137078518364,236.52631951077046 68.77147977481427,210.3421182876966 90,210 C 111.22852022518573,209.6578817123034 147.42021797926122,235.15784635998392 159,234 C 170.57978202073878,232.84215364001608 157.54764830814082,205.0264962723677 166,195 C 174.45235169185918,184.9735037276323 204.3891887881755,192.73616855054533 223,194 C 241.6108112118245,195.26383144945467 248.8955965391571,190.02882952545102 263,191 C 277.1044034608429,191.97117047454898 298.02842505519595,199.14851334765052 309,195 C 319.97157494480405,190.85148665234948 320.99070324005896,175.37711708394696 340,175 C 359.00929675994104,174.62288291605304 396.00876198456837,189.34301831656157 413,186 C 429.99123801543163,182.65698168343843 426.97424882166763,161.2508096498067 438,172 C 449.02575117833237,182.7491903501933 474.0942427287612,225.6537430842117 498,240 C 521.9057572712388,254.3462569157883 544.6487802632878,240.13421801334658 559,223 C 573.3512197367122,205.86578198665342 579.3106362180879,185.80938486240197 585,182 C 590.6893637819121,178.19061513759803 596.1086748643609,190.62824253704562 611,198 C 625.8913251356391,205.37175746295438 650.2546643244683,207.67764498941554 670,208 C 689.7453356755317,208.32235501058446 704.8726678377659,206.66117750529224 720,205 C 720,205 720,720 720,720 Z" fill="#064e40" opacity="0.17142857142857143"/><path d="M 0,720 C 0,720 0,308 0,308 C 9.53595105869313,323.4904612036103 19.07190211738626,338.98092240722065 43,338 C 66.92809788261374,337.01907759277935 105.24834258914811,319.5667715747276 114,306 C 122.75165741085189,292.4332284252724 101.9347275260213,282.75199129386885 115,285 C 128.0652724739787,287.24800870613115 175.0127473067667,301.4252632497969 197,307 C 218.9872526932333,312.5747367502031 216.01428324691196,309.5469557069435 221,303 C 225.98571675308804,296.4530442930565 238.93011970558535,286.38691392242913 253,284 C 267.06988029441465,281.61308607757087 282.26523793074654,286.9053886033397 295,291 C 307.73476206925346,295.0946113966603 318.0089285714285,297.9915316642121 336,298 C 353.9910714285715,298.0084683357879 379.69904778353924,295.128484739812 395,290 C 410.30095221646076,284.871515260188 415.19488029441465,277.4945293765399 435,283 C 454.80511970558535,288.5054706234601 489.52143103880235,306.8933977540285 503,304 C 516.4785689611977,301.1066022459715 508.71939555037613,276.93187960734593 526,286 C 543.2806044496239,295.06812039265407 585.600986759693,337.37908381658775 609,342 C 632.399013240307,346.62091618341225 636.8766574108519,313.5517851263033 648,304 C 659.1233425891481,294.4482148736967 676.8923835968994,308.4137756781991 690,313 C 703.1076164031006,317.5862243218009 711.5538082015503,312.7931121609005 720,308 C 720,308 720,720 720,720 Z" fill="#064e40" opacity="0.2571428571428571"/><path d="M 0,720 C 0,720 0,411 0,411 C 13.11528160971853,398.76799496162675 26.23056321943706,386.5359899232535 41,390 C 55.76943678056294,393.4640100767465 72.19302873197027,412.62403526861266 86,414 C 99.80697126802973,415.37596473138734 110.99732185268184,398.9678690022958 128,400 C 145.00267814731816,401.0321309977042 167.81768385730228,419.5044887222041 185,418 C 202.18231614269772,416.4955112777959 213.73194271810897,395.01417610888785 231,401 C 248.26805728189103,406.98582389111215 271.25454527026176,440.43880684224456 282,439 C 292.74545472973824,437.56119315775544 291.24987620084397,401.230596522134 298,389 C 304.75012379915603,376.769403477866 319.7459499263623,388.63880706921947 342,388 C 364.2540500736377,387.36119293078053 393.7663240937068,374.2141752009882 405,378 C 416.2336759062932,381.7858247990118 409.18875369881033,402.5044921268276 426,405 C 442.81124630118967,407.4955078731724 483.47866111105157,391.76785629170126 510,387 C 536.5213388889484,382.23214370829874 548.8966018569835,388.42408270636736 553,387 C 557.1033981430165,385.57591729363264 552.9349314610147,376.5358128828294 561,386 C 569.0650685389853,395.4641871171706 589.3636722989576,423.43266576231514 609,437 C 628.6363277010424,450.56733423768486 647.6103793431549,449.73352406790997 666,443 C 684.3896206568451,436.26647593209003 702.1948103284226,423.63323796604504 720,411 C 720,411 720,720 720,720 Z" fill="#064e40" opacity="0.34285714285714286"/><path d="M 0,720 C 0,720 0,514 0,514 C 23.948528974676876,509.4801790790892 47.89705794935375,504.96035815817845 66,511 C 84.10294205064625,517.0396418418215 96.36029717726187,533.6387464463753 111,538 C 125.63970282273813,542.3612535536247 142.66175334159882,534.4846560563204 157,535 C 171.33824665840118,535.5153439436796 182.9926894563427,544.422629328343 193,550 C 203.0073105436573,555.577370671657 211.36748883303042,557.8248266303078 224,537 C 236.63251116696958,516.1751733696922 253.53735521153556,472.27806415042545 274,478 C 294.46264478846444,483.72193584957455 318.4830903208275,539.0629167679901 327,544 C 335.5169096791725,548.9370832320099 328.5302835051546,503.4702687776141 348,494 C 367.4697164948454,484.5297312223859 413.395775658554,511.0560081215533 428,527 C 442.604224341446,542.9439918784467 425.8866138606294,548.3056987361724 430,550 C 434.1133861393706,551.6943012638276 459.0577688989283,549.7211969337569 481,550 C 502.9422311010717,550.2788030662431 521.8823105436574,552.8095135287999 540,542 C 558.1176894563426,531.1904864712001 575.4129889264424,507.0407489510433 588,493 C 600.5870110735576,478.9592510489567 608.4657337505732,475.02749066702677 620,477 C 631.5342662494268,478.97250933297323 646.7240760712648,486.8492883808495 664,494 C 681.2759239287352,501.1507116191505 700.6379619643676,507.5753558095753 720,514 C 720,514 720,720 720,720 Z" fill="#064e40" opacity="0.4285714285714286"/><path d="M 0,720 C 0,720 0,617 0,617 C 4.826424885825759,609.2511002510578 9.652849771651518,601.5022005021154 34,598 C 58.34715022834848,594.4977994978846 102.2150257992197,595.2422982425959 114,605 C 125.7849742007803,614.7577017574041 105.4870470314696,633.5286065275008 116,637 C 126.5129529685304,640.4713934724992 167.83678607490188,628.6432756474009 183,614 C 198.16321392509812,599.3567243525991 187.1658086689229,581.8982908828956 205,587 C 222.8341913310771,592.1017091171044 269.4999792494065,619.7635608210167 292,626 C 314.5000207505935,632.2364391789833 312.83427433345105,617.0474658330374 318,614 C 323.16572566654895,610.9525341669626 335.1629234167894,620.0465758468337 349,612 C 362.8370765832106,603.9534241531663 378.51403199939136,578.7662307796282 403,578 C 427.48596800060864,577.2337692203718 460.7809485856451,600.8885010346534 471,615 C 481.2190514143549,629.1114989653466 468.3621736580285,633.6797650817583 475,636 C 481.6378263419715,638.3202349182417 507.77035678224104,638.3924386383134 531,644 C 554.229643217759,649.6075613616866 574.5563992130076,660.7504803649882 590,650 C 605.4436007869924,639.2495196350118 616.0040463657286,606.6056399017339 632,601 C 647.9959536342714,595.3943600982661 669.4274153240775,616.826960028076 685,624 C 700.5725846759225,631.173039971924 710.2862923379612,624.086519985962 720,617 C 720,617 720,720 720,720 Z" fill="#064e40" opacity="0.5142857142857142"/></svg>